#!OML:ASF I:\Actors\actors\Patient Classification 1\Patient 1\Session 1\Subject1.ASF
:FULLY-SPECIFIED
:DEGREES
498
root 0.848974 17.5477 8.49127 8.11934 0.538482 -9.16996
lowerback 1.59321 0.287164 7.09456
upperback -3.46186 0.769818 2.86726
thorax -4.44457 0.192266 -1.03738
lowerneck -9.02092 -3.32944 -1.45089
upperneck 46.9544 -7.07653 4.19238
head 20.2723 -2.52992 1.07881
rclavicle 8.09349e-015 -1.1281e-014
rhumerus 8.15165 66.4297 -88.7615
rradius 140.356
rwrist -7.52574
rhand -27.9153 -65.8571
rfingers 7.12502
rthumb -1.30413 95.8328
lclavicle 8.09349e-015 -1.1281e-014
lhumerus -11.1061 -70.5241 105.612
lradius 138.162
lwrist 14.8665
lhand -56.4765 -30.8479
lfingers 7.12502
lthumb -28.7916 -3.04852
rfemur -4.13655 24.7487 26.0319
rtibia 4.40419
rfoot -12.5359 -23.6339
rtoes 1.72801
lfemur 3.84026 -42.7641 -9.6462
ltibia -3.83728
lfoot -17.517 48.7976
ltoes 5.64124
499
root 0.849912 17.5461 8.50133 8.0039 0.567856 -9.14897
lowerback 1.67072 0.273256 7.10713
upperback -3.51536 0.762925 2.8634
thorax -4.5455 0.184467 -1.04814
lowerneck -9.08719 -3.36057 -1.42162
upperneck 46.9802 -7.0991 4.10204
head 20.3031 -2.54287 1.02218
rclavicle -7.57478e-015 1.98785e-014
rhumerus 7.94583 66.4211 -88.929
rradius 140.371
rwrist -7.50807
rhand -27.9882 -65.6767
rfingers 7.12502
rthumb -1.37448 95.652
lclavicle -7.57478e-015 1.98785e-014
lhumerus -11.1357 -70.5171 105.596
lradius 138.202
lwrist 14.9224
lhand -56.495 -30.767
lfingers 7.12502
lthumb -28.8092 -2.97055
rfemur -4.00657 24.6371 26.0652
rtibia 4.47227
rfoot -12.6716 -23.5226
rtoes 2.07505
lfemur 3.93113 -42.3463 -9.70309
ltibia -3.83261
lfoot -17.3043 48.3729
ltoes 5.48093
500
root 0.85019 17.5448 8.50939 7.91036 0.618376 -9.21005
lowerback 1.73966 0.252524 7.18595
upperback -3.52849 0.747839 2.90306
thorax -4.60019 0.173176 -1.05005
lowerneck -9.12342 -3.38041 -1.5243
upperneck 46.9491 -7.11909 4.14457
head 20.3018 -2.56341 1.05747
rclavicle -5.28759e-015 4.11484e-014
rhumerus 9.66022 66.949 -87.0988
rradius 140.374
rwrist -7.81387
rhand -28.9516 -66.5855
rfingers 7.12502
rthumb -2.30496 96.5528
lclavicle -5.28759e-015 4.11484e-014
lhumerus -11.0276 -70.5059 105.497
lradius 138.192
lwrist 14.9229
lhand -56.5568 -31.0757
lfingers 7.12502
lthumb -28.8682 -3.28934
rfemur -3.92061 24.563 26.1912
rtibia 4.56918
rfoot -12.7897 -23.4872
rtoes 2.31144
lfemur 3.97244 -41.9319 -9.62122
ltibia -3.82798
lfoot -17.0052 47.9504
ltoes 5.13948
501
root 0.849887 17.544 8.51395 7.87485 0.692763 -9.26261
lowerback 1.76659 0.256153 7.27043
upperback -3.50027 0.757353 2.91166
thorax -4.58509 0.176081 -1.0887
lowerneck -9.1632 -3.40095 -1.57739
upperneck 46.9077 -7.16282 4.21338
head 20.2954 -2.58036 1.09261
rclavicle 7.9475e-016 -1.50331e-014
rhumerus 7.91135 66.2937 -88.9649
rradius 140.302
rwrist -7.43521
rhand -27.8255 -65.5014
rfingers 7.12502
rthumb -1.21735 95.4777
lclavicle 7.9475e-016 -1.50331e-014
lhumerus -10.7202 -70.515 105.223
lradius 138.273
lwrist 14.7024
lhand -56.7455 -30.1114
lfingers 7.12502
lthumb -29.0485 -2.35603
rfemur -3.90993 24.5298 26.2836
rtibia 4.66787
rfoot -12.8296 -23.5214
rtoes 2.27503
lfemur 3.91791 -41.6645 -9.49631
ltibia -3.80015
lfoot -16.8339 47.651
ltoes 4.85359
502
root 0.849291 17.5431 8.51571 7.86757 0.752866 -9.27819
lowerback 1.75793 0.234667 7.26623
upperback -3.41549 0.723233 2.94606
thorax -4.49384 0.164254 -1.04921
lowerneck -9.22139 -3.38793 -1.60872
upperneck 46.9355 -7.11732 4.17877
head 20.329 -2.5704 1.0888
rclavicle 1.76497e-014 -7.54201e-014
rhumerus 8.22098 66.2644 -88.6161
rradius 140.29
rwrist -7.45275
rhand -27.7939 -65.2769
rfingers 7.12502
rthumb -1.18682 95.2534
lclavicle 1.76497e-014 -7.54201e-014
lhumerus -10.4421 -70.4708 104.945
lradius 138.375
lwrist 14.5573
lhand -56.7537 -29.6708
lfingers 7.12502
lthumb -29.0563 -1.91674
rfemur -3.91647 24.5088 26.3114
rtibia 4.70705
rfoot -12.8266 -23.5555
rtoes 2.19098
lfemur 3.82631 -41.4579 -9.39349
ltibia -3.77834
lfoot -16.6374 47.4396
ltoes 4.58925
503
root 0.848316 17.5426 8.51455 7.87176 0.793097 -9.28419
lowerback 1.74102 0.20149 7.19844
upperback -3.26931 0.666974 3.00845
thorax -4.33538 0.147118 -0.944669
lowerneck -9.20059 -3.37498 -1.61948
upperneck 46.9058 -7.04246 4.0806
head 20.2874 -2.55627 1.05456
rclavicle 5.88065e-015 -3.16192e-015
rhumerus 10.3547 66.8762 -86.233
rradius 140.346
rwrist -7.85901
rhand -29.0272 -65.9338
rfingers 7.12502
rthumb -2.37797 95.9003
lclavicle 5.88065e-015 -3.16192e-015
lhumerus -10.2114 -70.449 104.719
lradius 138.378
lwrist 14.5936
lhand -56.6174 -30.1036
lfingers 7.12502
lthumb -28.9261 -2.3272
rfemur -3.9315 24.4966 26.3149
rtibia 4.70931
rfoot -12.8343 -23.5858
rtoes 2.10475
lfemur 3.73941 -41.3228 -9.30868
ltibia -3.76853
lfoot -16.428 47.2877
ltoes 4.46871
504
root 0.847757 17.5422 8.50969 7.88493 0.856495 -9.29379
lowerback 1.72472 0.207095 7.23262
upperback -3.04286 0.65756 2.97959
thorax -4.08846 0.152165 -0.994267
lowerneck -9.14365 -3.42077 -1.57983
upperneck 46.7541 -7.12366 4.11098
head 20.1648 -2.58047 1.0456
rclavicle -4.77374e-015 3.42655e-014
rhumerus 8.87751 66.2484 -87.7774
rradius 140.289
rwrist -7.46238
rhand -28.0445 -65.0109
rfingers 7.12502
rthumb -1.42893 94.9859
lclavicle -4.77374e-015 3.42655e-014
lhumerus -9.74643 -70.5295 104.297
lradius 138.385
lwrist 14.5485
lhand -56.8132 -29.2917
lfingers 7.12502
lthumb -29.1131 -1.54748
rfemur -3.97688 24.4858 26.3089
rtibia 4.73252
rfoot -12.871 -23.6069
rtoes 2.27424
lfemur 3.58651 -41.1642 -9.18366
ltibia -3.72692
lfoot -16.2572 47.0873
ltoes 4.33471
505
root 0.847456 17.5429 8.50085 7.9024 0.898437 -9.29544
lowerback 1.74647 0.197354 7.30228
upperback -2.74127 0.627433 2.9436
thorax -3.78622 0.14903 -1.07022
lowerneck -9.19121 -3.43111 -1.57249
upperneck 46.6729 -7.12384 4.09788
head 20.1183 -2.5811 1.03488
rclavicle -1.53173e-014 3.19174e-014
rhumerus 11.1387 66.6865 -85.4986
rradius 140.414
rwrist -7.58118
rhand -28.7644 -66.6708
rfingers 7.12502
rthumb -2.12418 96.64
lclavicle -1.53173e-014 3.19174e-014
lhumerus -9.35866 -70.6203 103.962
lradius 138.337
lwrist 14.8749
lhand -56.6599 -30.6228
lfingers 7.12502
lthumb -28.9667 -2.85336
rfemur -4.07352 24.4565 26.275
rtibia 4.80093
rfoot -12.8806 -23.5854
rtoes 2.61731
lfemur 3.36276 -40.8909 -9.02658
ltibia -3.63988
lfoot -16.0231 46.8127
ltoes 4.00877
506
root 0.845922 17.5446 8.48911 7.98055 0.902606 -9.3069
lowerback 1.72191 0.233528 7.35798
upperback -2.41896 0.651793 2.9047
thorax -3.43269 0.175719 -1.14364
lowerneck -9.10935 -3.46417 -1.45422
upperneck 46.6194 -7.12106 3.93417
head 20.0338 -2.58139 0.931976
rclavicle -1.15047e-014 -4.33102e-014
rhumerus 9.66804 66.0993 -87.1443
rradius 140.419
rwrist -7.03707
rhand -27.5278 -66.1367
rfingers 7.12502
rthumb -0.929868 96.1144
lclavicle -1.15047e-014 -4.33102e-014
lhumerus -9.36923 -70.7198 103.986
lradius 138.388
lwrist 15.3642
lhand -56.1369 -32.2192
lfingers 7.12502
lthumb -28.467 -4.36507
rfemur -4.2768 24.5046 26.2234
rtibia 4.91353
rfoot -12.8864 -23.6233
rtoes 2.7795
lfemur 3.03972 -40.5288 -8.7638
ltibia -3.58066
lfoot -15.7092 46.5012
ltoes 3.64942
507
root 0.843982 17.545 8.47782 8.14256 0.923493 -9.32409
lowerback 1.53779 0.206674 7.34434
upperback -2.06192 0.573003 2.93259
thorax -2.96203 0.158092 -1.10409
lowerneck -8.9414 -3.45257 -1.48281
upperneck 46.5955 -7.06279 3.88607
head 19.9602 -2.57438 0.926885
rclavicle -1.53126e-014 -2.88735e-014
rhumerus 12.3578 66.947 -84.2772
rradius 140.429
rwrist -7.43711
rhand -29.0066 -67.6753
rfingers 7.12502
rthumb -2.35809 97.642
lclavicle -1.53126e-014 -2.88735e-014
lhumerus -9.44003 -70.5368 104.077
lradius 138.553
lwrist 15.4177
lhand -56.0239 -31.2429
lfingers 7.12502
lthumb -28.3591 -3.37077
rfemur -4.5498 24.6199 26.1528
rtibia 5.00276
rfoot -12.9154 -23.7383
rtoes 2.75488
lfemur 2.58 -40.0962 -8.39333
ltibia -3.52091
lfoot -15.3462 46.1316
ltoes 3.17427
